<svg width="145" height="24" viewBox="0 0 145 24" fill="none" xmlns="http://www.w3.org/2000/svg">
<g clip-path="url(#clip0_5_8)">
<path d="M23.9828 18.0677V2.45414H26.895V4.78314C28.0772 2.99808 29.715 2.08895 31.8082 2.08895C35.2347 2.08895 37.2973 4.08598 37.2973 7.59736V18.0677H34.2649V8.02128C34.2649 5.84295 33.1722 4.7525 30.9587 4.7525C29.9581 4.7525 29.0496 5.14578 28.2308 5.90168C27.3812 6.65759 27.0178 7.80677 27.0178 9.25984V18.0651H23.9854L23.9828 18.0677Z" fill="white"/>
<path d="M47.1187 2.09151C52.0012 2.09151 54.5474 5.78421 54.5474 10.3835V11.262H42.753C43.0268 14.3188 44.6032 15.8919 47.2415 15.8919C49.2119 15.8919 50.517 15.0134 51.1235 13.2896H54.1866C53.337 16.4665 50.7908 18.4329 47.1826 18.4329C42.3615 18.4329 39.6925 14.8321 39.6925 10.2635C39.6925 5.69483 42.3308 2.09406 47.1212 2.09406L47.1187 2.09151ZM51.4229 8.86912C51.1491 6.32816 49.542 4.63247 47.1187 4.63247C44.6953 4.63247 43.1471 6.1162 42.7837 8.86912H51.4254H51.4229Z" fill="white"/>
<path d="M54.6088 2.45414H57.8843L59.8855 8.96106C60.4305 10.7155 60.9782 12.5618 61.5232 14.5282C61.8866 13.0751 62.4035 11.2288 63.0996 8.96106L65.1007 2.45414H68.1331L70.1035 8.96106C70.9224 11.7753 71.4674 13.6216 71.7106 14.4976C71.9537 13.6191 72.4987 11.7753 73.3176 8.96106L75.3494 2.45414H78.5942L73.4097 18.0677H70.2263L68.0742 11.1981C67.5292 9.47436 67.043 7.77868 66.5875 6.17493C65.9196 8.53458 65.4359 10.1996 65.1314 11.1981L63.01 18.0677H59.7959L54.6114 2.45414H54.6088Z" fill="white"/>
<path d="M79.9582 24V2.45414H82.8703V4.81379C84.0526 2.99808 85.7799 2.09151 88.0855 2.09151C92.4512 2.09151 95.2405 5.26836 95.2405 10.2609C95.2405 14.7095 92.876 18.4303 88.0855 18.4303C85.872 18.4303 84.1728 17.5825 82.9906 15.8893V24H79.9582ZM87.5072 15.8306C90.8416 15.8306 92.0852 13.0777 92.0852 10.1409C92.0852 6.66014 90.3861 4.69376 87.5072 4.69376C84.2317 4.69376 82.9292 7.32667 82.9292 10.2609C82.9292 13.1951 84.2624 15.828 87.5072 15.828V15.8306Z" fill="white"/>
<path d="M102.367 8.96106L104.67 8.71845C106.277 8.50649 107.004 7.9319 107.004 6.75207C107.004 5.17897 106.096 4.51245 103.79 4.51245C101.272 4.51245 100.302 5.23771 100.151 7.32666H97.1495C97.3619 3.84592 99.5754 2.09151 103.79 2.09151C108.005 2.09151 109.975 3.63397 109.975 6.69079V14.9521C109.975 15.4654 110.249 15.7387 110.825 15.7387H111.674V18.0677C111.219 18.129 110.735 18.1596 110.188 18.1596C108.248 18.1596 107.368 17.4931 107.155 15.9506C106.093 17.6157 104.397 18.4329 102.06 18.4329C98.6337 18.4329 96.4816 16.7091 96.4816 13.8029C96.4816 10.8968 98.452 9.38498 102.365 8.96106H102.367ZM99.6087 13.711C99.6087 15.1947 100.609 16.0707 102.518 16.0707C105.095 16.0707 107.007 14.5588 107.007 11.8953V10.2609C106.613 10.5929 105.975 10.8049 105.067 10.8968L102.884 11.1394C100.55 11.4126 99.6087 12.2298 99.6087 13.711Z" fill="white"/>
<path d="M112.493 10.2609C112.493 5.26836 115.282 2.09151 119.648 2.09151C121.923 2.09151 123.65 2.96999 124.833 4.75505V2.45414H127.745V24H124.712V15.9506C123.53 17.6157 121.862 18.4329 119.648 18.4329C115.282 18.4329 112.493 15.256 112.493 10.2635V10.2609ZM120.226 15.828C123.502 15.828 124.804 13.1951 124.804 10.2609C124.804 7.32667 123.561 4.69376 120.226 4.69376C117.437 4.69376 115.648 6.84146 115.648 10.3835C115.648 13.9255 117.437 15.8306 120.226 15.8306V15.828Z" fill="white"/>
<path d="M137.571 2.09151C142.454 2.09151 145 5.78421 145 10.3835V11.262H133.206C133.479 14.3188 135.056 15.8919 137.694 15.8919C139.665 15.8919 140.97 15.0134 141.576 13.2896H144.639C143.79 16.4665 141.243 18.4329 137.635 18.4329C132.814 18.4329 130.145 14.8321 130.145 10.2635C130.145 5.69483 132.783 2.09406 137.574 2.09406L137.571 2.09151ZM141.875 8.86912C141.602 6.32816 139.995 4.63247 137.571 4.63247C135.148 4.63247 133.6 6.1162 133.236 8.86912H141.878H141.875Z" fill="white"/>
<path d="M7.8868 0L9.41964 7.65354C9.77022 9.40285 11.1418 10.7717 12.8947 11.1215L20.564 12.6512V8.43498H13.2197C12.6081 8.43498 12.1117 7.93956 12.1117 7.32922V0H7.8868Z" fill="white"/>
<path d="M12.6772 20.5218L11.1444 12.8683C10.7938 11.119 9.4222 9.75016 7.66929 9.4003L0 7.87061V12.0868H7.3443C7.9559 12.0868 8.45234 12.5822 8.45234 13.1926V20.5218H12.6772Z" fill="white"/>
</g>
<defs>
<clipPath id="clip0_5_8">
<rect width="145" height="24" fill="white"/>
</clipPath>
</defs>
</svg>
